inDegrees=yes
name=ik_S53_A01_T02
DataType=double
version=3
OpenSimVersion=4.3-2021-08-27-4bc7ad9
endheader
time	pelvis_tilt	pelvis_list	pelvis_rotation	pelvis_tx	pelvis_ty	pelvis_tz	hip_flexion_r	hip_adduction_r	hip_rotation_r	knee_angle_r	knee_angle_r_beta	ankle_angle_r	subtalar_angle_r	mtp_angle_r	hip_flexion_l	hip_adduction_l	hip_rotation_l	knee_angle_l	knee_angle_l_beta	ankle_angle_l	subtalar_angle_l	mtp_angle_l	lumbar_extension	lumbar_bending	lumbar_rotation	arm_flex_r	arm_add_r	arm_rot_r	elbow_flex_r	pro_sup_r	wrist_flex_r	wrist_dev_r	arm_flex_l	arm_add_l	arm_rot_l	elbow_flex_l	pro_sup_l	wrist_flex_l	wrist_dev_l
37.38000000000024	-5.857293195314125	-10.33994552349383	-88.20501893095076	0	0.9399999999999999	0	1.515767364102782	7.479769655948673	-9.895418059811933	11.24275302940215	0.1962230573516343	0	0	0	2.328033440269366	-18.74810310832919	-10.51167288069083	63.34396929209939	1.105560825429316	0	0	0	0	0	0	44.34276318867121	-44.34276318867121	4.996726406560754	84.95289620964179	85.00327386755419	0	0	44.34276318867121	-44.34276318867121	4.996726406560754	84.95289620964179	85.00327386755379	0	0
37.40000000000025	-6.094706760779276	-10.12830338108755	-88.69559911044242	0	0.9399999999999999	0	0.846596229977193	7.940559010012854	-9.05710488880227	11.14375949174247	0.194495294181276	0	0	0	4.871274781937237	-19.34512790937985	-9.472871615106994	62.40476596355611	1.089168635000546	0	0	0	0	0	0	44.34557416065322	-44.34557416065322	4.9967503051755	84.95324010036434	85.00324996894017	0	0	44.34557416065322	-44.34557416065322	4.9967503051755	84.95324010036434	85.00324996893978	0	0
37.42000000000025	-5.912360783032527	-9.835257264362477	-89.06431819001958	0	0.9399999999999999	0	1.059168828500537	7.722305058044894	-8.668107303928311	11.71168770967429	0.2044075114991701	0	0	0	5.113296412250128	-18.83771149146138	-9.917760828637642	57.96242174832337	1.011635101937811	0	0	0	0	0	0	44.34587475253353	-44.34587475253353	4.996753286839448	84.95328300522287	85.00324698727633	0	0	44.34587475253353	-44.34587475253353	4.996753286839448	84.95328300522287	85.00324698727593	0	0
37.44000000000025	-5.504595749640649	-9.451919455007657	-89.24687550592429	0	0.9399999999999999	0	-0.1339025011775538	7.88738486532421	-7.417828000077337	10.56705782307596	0.1844299512612999	0	0	0	5.464613428608445	-18.24734175211144	-10.27137540383946	52.93462138240575	0.9238834314195727	0	0	0	0	0	0	44.34614867004574	-44.34614867004574	4.996755999834796	84.95332204405555	85.00324427428112	0	0	44.34614867004574	-44.34614867004574	4.996755999834796	84.95332204405555	85.00324427428073	0	0
37.46000000000026	-5.007365770653533	-8.97274238953394	-89.33019581300269	0	0.9399999999999999	0	-0.4642985923357699	7.589020681357131	-7.314209390321786	10.27471639697738	0.179327630835904	0	0	0	5.933282331038902	-17.67556316939028	-10.58365692322814	47.52293613280769	0.8294317057324754	0	0	0	0	0	0	44.34643173556915	-44.34643173556915	4.996758794482852	84.95336225783642	85.00324147963312	0	0	44.34643173556915	-44.34643173556915	4.996758794482852	84.95336225783642	85.00324147963272	0	0
37.48000000000026	-4.585128965026567	-8.544484815259176	-89.38480357114416	0	0.9399999999999999	0	-0.05617975746097394	7.167673853945817	-7.198304259037373	10.26773984152232	0.1792058669727653	0	0	0	6.351773357771609	-17.22094160461627	-10.82349116166251	41.88159806224905	0.7309717821831229	0	0	0	0	0	0	44.34672471818974	-44.34672471818974	4.996761685677428	84.95340386087869	85.00323858843873	0	0	44.34672471818974	-44.34672471818974	4.996761685677428	84.95340386087869	85.00323858843834	0	0
37.50000000000026	-4.333927546601413	-8.191281234198915	-89.47942888423462	0	0.9399999999999999	0	-1.521530254663517	6.914982286806465	-8.273291059603979	9.896275994581792	0.1727225997915288	0	0	0	13.66798859011737	-16.98045828494593	-6.795624944851247	42.21376912836864	0.7367692609667695	0	0	0	0	0	0	44.35054310700911	-44.35054310700911	4.996794185279803	84.95387151609103	85.00320608883736	0	0	44.35054310700911	-44.35054310700911	4.996794185279803	84.95387151609103	85.00320608883696	0	0
37.52000000000027	-4.346187679550717	-7.849798830793418	-89.5992234445545	0	0.9399999999999999	0	-1.960150032946913	7.005083447179603	-9.034236678184945	9.949418598565996	0.1736501132041366	0	0	0	13.97295551165527	-17.02824577005117	-7.01549203528285	36.19972642969322	0.6318044145193583	0	0	0	0	0	0	44.35087353302639	-44.35087353302639	4.996797455742199	84.95391857663452	85.0032028183751	0	0	44.35087353302639	-44.35087353302639	4.996797455742199	84.95391857663452	85.0032028183747	0	0
37.54000000000027	-4.690316298513467	-7.536939349866402	-89.79460474146558	0	0.9399999999999999	0	-2.416027495873632	7.41647561436141	-9.866349358647962	10.01654583840244	0.1748217045570584	0	0	0	15.52142025754052	-16.45877272358673	-6.45893776830988	31.12344305727021	0.5432065559063353	0	0	0	0	0	0	44.35279047380693	-44.35279047380693	4.996814036323835	84.95415716403095	85.00318623779393	0	0	44.35279047380693	-44.35279047380693	4.996814036323835	84.95415716403095	85.00318623779353	0	0
37.56000000000027	-5.275524797425927	-7.253547931825877	-90.18975030558681	0	0.9399999999999999	0	-2.916959427851915	7.976288062303115	-10.5302237939562	10.12768687829383	0.1767614816372536	0	0	0	15.74706378398343	-17.09660019391874	-6.621186658957942	31.09963689703966	0.5427910600280548	0	0	0	0	0	0	44.35284090365133	-44.35284090365133	4.996814534634856	84.95416433451163	85.00318573948294	0	0	44.35284090365133	-44.35284090365133	4.996814534634856	84.95416433451163	85.00318573948256	0	0
37.58000000000028	-5.957016934236441	-6.895979886070078	-90.78409600934239	0	0.9399999999999999	0	-3.195676061763399	8.631904752405614	-10.78232675163487	9.875521121982073	0.1723603589288317	0	0	0	16.3327926729201	-16.95280794421292	-6.798016586488558	31.14288400699299	0.5435458644887123	0	0	0	0	0	0	44.35291550775423	-44.35291550775423	4.996815273241809	84.9541749627471	85.00318500087604	0	0	44.35291550775423	-44.35291550775423	4.996815273241809	84.9541749627471	85.00318500087565	0	0
37.60000000000028	-6.528827872405231	-6.474340075501103	-91.49470421131697	0	0.9399999999999999	0	-3.017872379698313	9.052820047226472	-10.34075665398417	10.9389053160354	0.1909199143287285	0	0	0	16.84548460037509	-17.27843720831088	-6.34899151451464	14.48246803120159	0.2527667509592886	0	0	0	0	0	0	44.36177894499004	-44.36177894499004	4.996889301041526	84.95524019072957	85.00311097307855	0	0	44.36177894499004	-44.36177894499004	4.996889301041526	84.95524019072957	85.00311097307815	0	0
37.62000000000028	-6.959298393181198	-5.952531059097309	-92.31420750786073	0	0.9399999999999999	0	-3.950464720697916	9.407338615719873	-10.82490687755515	10.65636029208384	0.1859885733756477	0	0	0	17.27915746216635	-17.90037378263471	-6.537745354260879	10.61786695936404	0.1853167379796215	0	0	0	0	0	0	44.36205821385136	-44.36205821385136	4.996892039702166	84.95527959887455	85.00310823441801	0	0	44.36205821385136	-44.36205821385136	4.996892039702166	84.95527959887455	85.00310823441761	0	0
37.64000000000028	-7.170540706611896	-5.487952407744721	-93.24692098795232	0	0.9399999999999999	0	-4.287129382896438	9.423733219007312	-10.63388496106136	11.00673985287072	0.1921038503430704	0	0	0	15.35810028918614	-17.37611805838655	-6.81301993796668	5.632292581662417	0.09830204998566078	0	0	0	0	0	0	44.36106628525028	-44.36106628525028	4.996884481118964	84.95517083414279	85.00311579300094	0	0	44.36106628525028	-44.36106628525028	4.996884481118964	84.95517083414279	85.00311579300055	0	0
37.66000000000029	-7.241829069300673	-5.135830413197905	-94.30100879665135	0	0.9399999999999999	0	-4.641291903868994	9.227872634751963	-10.35112633482405	11.54770723173935	0.2015455122502115	0	0	0	15.21879770081262	-17.92353723224704	-7.38210289930317	4.579316427619869	0.07992414915263131	0	0	0	0	0	0	44.36116856349729	-44.36116856349729	4.996885485067591	84.95518528053024	85.00311478905232	0	0	44.36116856349729	-44.36116856349729	4.996885485067591	84.95518528053024	85.00311478905191	0	0
37.68000000000029	-7.1511716975131	-4.841617595372073	-95.35409231395148	0	0.9399999999999999	0	-4.969406503596073	8.851736106106756	-10.06222612078519	12.11225836639844	0.2113987883458825	0	0	0	15.16801182981519	-18.12477274198804	-8.481248957850818	4.512236912827146	0.07875339075885805	0	0	0	0	0	0	44.36124288744912	-44.36124288744912	4.996886213105922	84.95519575668774	85.003114061014	0	0	44.36124288744912	-44.36124288744912	4.996886213105922	84.95519575668774	85.0031140610136	0	0
37.70000000000029	-6.988024790863188	-4.505150653808412	-96.37446823101516	0	0.9399999999999999	0	-5.13222328249261	8.385304505780914	-9.771984397637686	13.02068062762479	0.2272537478026944	0	0	0	15.39541831028517	-18.7701155052142	-8.666241758249921	4.004633389872046	0.06989403798856894	0	0	0	0	0	0	44.36134819991432	-44.36134819991432	4.996887246954277	84.95521063331952	85.00311302716568	0	0	44.36134819991432	-44.36134819991432	4.996887246954277	84.95521063331952	85.00311302716528	0	0
37.7200000000003	-6.748159036547009	-4.166234920638097	-97.23665158437076	0	0.9399999999999999	0	-5.256889348045441	7.822321935804161	-9.571076825298228	13.86987767327332	0.2420750322474697	0	0	0	14.94317548377864	-19.49567980794247	-6.605023362027006	3.560367130134289	0.06214012900062475	0	0	0	0	0	0	44.36271290377475	-44.36271290377475	4.996898818008154	84.95537713577622	85.00310145611215	0	0	44.36271290377475	-44.36271290377475	4.996898818008154	84.95537713577622	85.00310145611178	0	0
37.7400000000003	-6.393448973897034	-4.0890896985286	-97.88130471081185	0	0.9399999999999999	0	-5.647858387010517	7.100525793968761	-9.547481737363855	14.62340109438927	0.2552264969368349	0	0	0	14.49201555043919	-18.69252080373839	-5.722534499613125	2.913448011944144	0.05084926039410839	0	0	0	0	0	0	44.36283273537081	-44.36283273537081	4.996899993557359	84.95539405142203	85.00310028056296	0	0	44.36283273537081	-44.36283273537081	4.996899993557359	84.95539405142203	85.00310028056259	0	0
37.7600000000003	-5.976561170868651	-4.214310432392009	-98.3185866781165	0	0.9399999999999999	0	-6.237402765456168	6.304893654526181	-9.675832359360012	15.40071084928042	0.2687931114675555	0	0	0	13.46780425953934	-17.45261476722831	-5.181772755342021	2.458214872009695	0.04290394323806017	0	0	0	0	0	0	44.36297545584021	-44.36297545584021	4.996901393569765	84.95541419699644	85.00309888055061	0	0	44.36297545584021	-44.36297545584021	4.996901393569765	84.95541419699644	85.00309888055024	0	0
